<svg width="123" height="122" viewBox="0 0 123 122" fill="none" xmlns="http://www.w3.org/2000/svg">
<g id="body-weight-scales-icon 1" clip-path="url(#clip0_447_182)">
<g id="Group">
<path id="Vector" d="M42.77 103.11H80.11C80.25 103.11 80.38 103.17 80.48 103.26C80.57 103.35 80.63 103.48 80.63 103.63V108.84C80.63 108.98 80.57 109.11 80.48 109.21C80.39 109.3 80.25 109.36 80.11 109.36H42.77C42.63 109.36 42.5 109.3 42.4 109.21C42.31 109.12 42.25 108.98 42.25 108.84V103.63C42.25 103.49 42.31 103.36 42.4 103.26C42.49 103.17 42.62 103.11 42.77 103.11ZM61.79 12.93C65.17 12.93 68.4 13.6 71.35 14.82C74.41 16.09 77.17 17.95 79.47 20.25C81.77 22.55 83.63 25.31 84.9 28.37C86.12 31.32 86.79 34.55 86.79 37.93C86.79 41.32 86.12 44.54 84.9 47.49C83.63 50.55 81.77 53.31 79.47 55.61C77.17 57.91 74.41 59.77 71.35 61.04C68.4 62.26 65.17 62.93 61.79 62.93C58.41 62.93 55.18 62.26 52.23 61.04C49.17 59.77 46.41 57.91 44.11 55.61C41.81 53.31 39.95 50.55 38.68 47.49C37.46 44.54 36.79 41.31 36.79 37.93C36.79 34.55 37.46 31.32 38.68 28.37C39.95 25.31 41.81 22.55 44.11 20.25C46.41 17.95 49.17 16.09 52.23 14.82C55.18 13.6 58.41 12.93 61.79 12.93ZM14.64 7.59H38.15C39.62 6.45 41.22 5.41 42.93 4.49C44.67 3.56 46.52 2.76 48.46 2.11C50.49 1.42 52.63 0.89 54.84 0.53C57 0.18 59.23 0 61.5 0C63.77 0 66 0.18 68.16 0.53C70.37 0.89 72.51 1.42 74.54 2.11C76.48 2.77 78.33 3.57 80.07 4.49C81.79 5.41 83.39 6.44 84.85 7.59H108.23C110.2 7.59 112.09 7.99 113.82 8.7C115.61 9.44 117.23 10.54 118.58 11.89C119.93 13.24 121.02 14.85 121.77 16.65C122.49 18.37 122.88 20.26 122.88 22.24V107.33C122.88 109.3 122.48 111.19 121.77 112.92C121.03 114.71 119.93 116.33 118.58 117.68C117.23 119.03 115.62 120.12 113.82 120.87C112.1 121.59 110.21 121.98 108.23 121.98H14.64C12.67 121.98 10.78 121.58 9.05 120.87C7.26 120.13 5.64 119.03 4.29 117.68C2.94 116.33 1.85 114.72 1.1 112.92C0.4 111.18 0 109.29 0 107.32V22.23C0 20.26 0.4 18.37 1.11 16.64C1.85 14.85 2.95 13.23 4.3 11.88C5.65 10.53 7.26 9.44 9.06 8.69C10.78 7.98 12.67 7.59 14.64 7.59ZM16.61 102.14C17.74 102.14 18.77 102.6 19.51 103.34C20.25 104.08 20.71 105.11 20.71 106.24C20.71 107.37 20.25 108.4 19.51 109.14C18.77 109.88 17.74 110.34 16.61 110.34C15.48 110.34 14.46 109.88 13.71 109.14C12.97 108.4 12.51 107.37 12.51 106.24C12.51 105.11 12.97 104.08 13.71 103.34L13.73 103.32C14.48 102.59 15.49 102.14 16.61 102.14ZM16.61 21C17.74 21 18.77 21.46 19.51 22.2C20.25 22.94 20.71 23.97 20.71 25.1C20.71 26.23 20.25 27.25 19.51 28C18.77 28.74 17.74 29.2 16.61 29.2C15.48 29.2 14.46 28.74 13.71 28C12.97 27.26 12.51 26.23 12.51 25.1C12.51 23.97 12.97 22.94 13.71 22.2L13.73 22.18C14.48 21.45 15.49 21 16.61 21ZM106.27 21C107.4 21 108.42 21.46 109.17 22.2C109.91 22.94 110.37 23.97 110.37 25.1C110.37 26.23 109.91 27.25 109.17 28C108.43 28.74 107.4 29.2 106.27 29.2C105.14 29.2 104.11 28.74 103.37 28L103.35 27.98C102.62 27.24 102.17 26.22 102.17 25.11C102.17 23.98 102.63 22.95 103.37 22.21C104.11 21.46 105.14 21 106.27 21ZM106.27 102.14C107.4 102.14 108.42 102.6 109.17 103.34C109.91 104.08 110.37 105.11 110.37 106.24C110.37 107.37 109.91 108.4 109.17 109.14L109.15 109.16C108.41 109.89 107.39 110.34 106.28 110.34C105.15 110.34 104.12 109.88 103.38 109.14C102.64 108.4 102.18 107.37 102.18 106.24C102.18 105.11 102.64 104.08 103.38 103.34C104.11 102.6 105.14 102.14 106.27 102.14ZM37.73 12.77H14.64C13.36 12.77 12.15 13.03 11.03 13.49C9.87 13.97 8.83 14.68 7.95 15.55C7.07 16.43 6.37 17.47 5.89 18.63C5.43 19.74 5.17 20.96 5.17 22.24V107.33C5.17 108.61 5.43 109.83 5.89 110.94C6.37 112.1 7.08 113.14 7.95 114.02C8.83 114.9 9.87 115.6 11.03 116.08C12.14 116.54 13.36 116.8 14.64 116.8H108.23C109.51 116.8 110.72 116.54 111.84 116.08C113 115.6 114.04 114.89 114.92 114.02C115.8 113.14 116.5 112.1 116.98 110.94C117.44 109.83 117.7 108.61 117.7 107.33V22.23C117.7 20.95 117.44 19.73 116.98 18.62C116.5 17.46 115.79 16.42 114.92 15.54C114.04 14.66 113 13.96 111.84 13.48C110.73 13.02 109.51 12.76 108.23 12.76H83.96C83.93 12.76 83.89 12.76 83.86 12.75C83.6 12.74 83.33 12.69 83.08 12.6L83.06 12.59C82.79 12.49 82.54 12.35 82.31 12.15C81 11.06 79.54 10.07 77.95 9.2C76.38 8.34 74.69 7.6 72.9 6.99C71.14 6.39 69.28 5.93 67.34 5.62C65.46 5.32 63.51 5.16 61.49 5.16C59.48 5.16 57.52 5.32 55.64 5.62C53.72 5.95 51.86 6.41 50.1 7C48.34 7.59 46.68 8.32 45.14 9.16C43.59 10 42.15 10.97 40.84 12.03C40.61 12.26 40.33 12.44 40.02 12.56C39.71 12.69 39.38 12.75 39.04 12.75H37.73V12.77ZM80 39.17C79.59 39.17 79.21 39 78.94 38.73C78.67 38.46 78.5 38.08 78.5 37.67C78.5 37.25 78.67 36.88 78.94 36.61C79.21 36.34 79.59 36.17 80 36.17H83.02C82.83 33.84 82.26 31.61 81.37 29.55C80.46 27.42 79.21 25.47 77.69 23.77L75.85 25.61L75.83 25.63C75.54 25.91 75.16 26.05 74.79 26.05C74.41 26.05 74.02 25.9 73.73 25.61C73.44 25.32 73.29 24.93 73.29 24.55C73.29 24.16 73.44 23.78 73.73 23.49L75.54 21.68C73.82 20.22 71.86 19.04 69.73 18.18C67.67 17.35 65.44 16.84 63.12 16.69V19.92C63.12 20.34 62.95 20.71 62.68 20.98C62.41 21.25 62.03 21.42 61.62 21.42C61.2 21.42 60.83 21.25 60.56 20.98C60.29 20.71 60.12 20.33 60.12 19.92V16.7C57.81 16.88 55.61 17.43 53.57 18.29C51.46 19.18 49.53 20.39 47.83 21.87L49.93 23.97C50.22 24.26 50.37 24.65 50.37 25.03C50.37 25.42 50.22 25.8 49.93 26.09C49.64 26.38 49.25 26.53 48.87 26.53C48.49 26.53 48.1 26.38 47.81 26.09L45.71 23.99C44.23 25.7 43.02 27.64 42.14 29.76C41.29 31.81 40.74 34.02 40.57 36.34H43.91C44.33 36.34 44.7 36.51 44.97 36.78C45.24 37.05 45.41 37.43 45.41 37.84C45.41 38.25 45.24 38.63 44.97 38.9C44.7 39.17 44.32 39.34 43.91 39.34H40.56C40.71 41.68 41.24 43.92 42.09 45.99C42.96 48.13 44.18 50.09 45.66 51.81L47.73 49.74C48.02 49.45 48.41 49.3 48.79 49.3C49.18 49.3 49.56 49.45 49.85 49.74C50.14 50.03 50.29 50.42 50.29 50.8C50.29 51.19 50.14 51.57 49.85 51.86L47.77 53.94C49.49 55.45 51.47 56.69 53.61 57.59C55.69 58.46 57.94 59.01 60.3 59.17V56.6C60.3 56.19 60.47 55.81 60.74 55.54C61.01 55.27 61.39 55.1 61.8 55.1C62.21 55.1 62.59 55.27 62.86 55.54C63.13 55.81 63.3 56.19 63.3 56.6V59.19C65.66 59.02 67.92 58.47 70.01 57.6C72.17 56.7 74.14 55.45 75.87 53.93L73.9 51.96C73.61 51.67 73.46 51.28 73.46 50.9C73.46 50.51 73.61 50.13 73.9 49.84C74.19 49.55 74.58 49.4 74.96 49.4C75.35 49.4 75.73 49.55 76.02 49.84L77.97 51.79C79.46 50.05 80.68 48.06 81.55 45.9C82.39 43.8 82.91 41.54 83.05 39.18H80V39.17ZM63.55 40.51C63.13 40.97 62.58 41.22 62.01 41.26C61.43 41.3 60.84 41.12 60.36 40.7L60.33 40.68C59.87 40.27 59.62 39.71 59.59 39.15C59.55 38.57 59.73 37.98 60.15 37.5L68.01 28.51C68.42 28.04 68.99 27.78 69.57 27.74C70.15 27.7 70.74 27.88 71.22 28.3C71.69 28.71 71.95 29.28 71.99 29.86C72.03 30.44 71.85 31.03 71.43 31.51C68.8 34.5 66.15 37.49 63.55 40.51Z" fill="url(#paint0_linear_447_182)"/>
</g>
</g>
<defs>
<linearGradient id="paint0_linear_447_182" x1="61.44" y1="0" x2="61.44" y2="121.98" gradientUnits="userSpaceOnUse">
<stop stop-color="#1EFFD7"/>
<stop offset="1" stop-color="#008080"/>
</linearGradient>
<clipPath id="clip0_447_182">
<rect width="122.88" height="121.96" fill="white"/>
</clipPath>
</defs>
</svg>
