<svg width="24" height="24" viewBox="0 0 24 24" fill="none" xmlns="http://www.w3.org/2000/svg">
<g id="Calories">
<path id="Vector" d="M12.5114 23.4581C4.60181 23.4581 2.48849 15.2129 3.44376 9.81061C3.48534 9.57548 3.79354 9.50775 3.92784 9.70519C4.34371 10.3164 4.71379 11.1993 5.32696 11.1227C6.24857 11.0075 6.88706 2.87522 12.3492 0.587016C12.5225 0.514406 12.7039 0.652172 12.6848 0.839109C12.4147 3.48909 14.0058 7.28292 16.8246 7.28292C18.4405 7.28292 19.5461 5.9933 20.0986 4.69814C20.2664 4.30472 20.8412 4.35431 20.9375 4.77108C21.9233 9.04055 24.5586 23.4581 12.5114 23.4581Z" fill="#5142AB"/>
<path id="Vector_2" d="M9.73856 15.5075C9.92456 15.3512 10.2069 15.4585 10.2492 15.6977C10.348 16.2576 10.6729 17.2197 11.7388 17.2197C13.0209 17.2197 13.891 13.6917 14.1192 12.6541C14.1567 12.4834 14.3231 12.3675 14.4944 12.4023C17.6985 13.0537 19.2564 23.4581 12.2114 23.4581C7.08272 23.4581 8.24461 16.7625 9.73856 15.5075ZM18.4939 4.24003C18.6068 3.35681 16.9945 5.77252 16.9945 5.77252C16.9945 5.77252 18.2237 6.35311 18.4939 4.24003ZM2.24827 17.412C2.28225 17.036 1.79855 16.0293 1.71291 16.4279C1.50792 17.3815 2.21428 17.788 2.24827 17.412Z" fill="#C2A6DC"/>
<path id="Vector_3" d="M15.1489 16.3404C15.0287 15.8393 14.5979 17.0033 14.652 17.4773C14.7061 17.9514 15.4363 17.5393 15.1489 16.3404Z" fill="#E6DAF1"/>
</g>
</svg>
