<svg width="139" height="139" viewBox="0 0 139 139" fill="none" xmlns="http://www.w3.org/2000/svg">
<g id="compass-active-svgrepo-com 1" clip-path="url(#clip0_447_416)">
<path id="Vector" fill-rule="evenodd" clip-rule="evenodd" d="M79.0689 120.748C77.3552 121.066 75.6119 121.301 73.8437 121.447V112.938H65.1562V121.447C39.7221 119.348 19.4658 98.9897 17.527 73.5108H26.0625V64.8233H17.5819C19.8197 39.6563 39.9441 19.6334 65.1562 17.5534V26.0625H73.8437V17.5534C99.1669 19.6425 119.358 39.8331 121.447 65.1562H112.938V73.8438H121.447C121.301 75.612 121.066 77.3552 120.748 79.0689C123.656 79.7367 126.424 80.7693 129.002 82.1157C129.861 78.0457 130.312 73.8256 130.312 69.5C130.312 35.9142 103.086 8.6875 69.5 8.6875C35.9142 8.6875 8.6875 35.9142 8.6875 69.5C8.6875 103.086 35.9142 130.312 69.5 130.312C73.8256 130.312 78.0457 129.861 82.1157 129.002C80.7693 126.424 79.7367 123.656 79.0689 120.748ZM86.0383 90.9364L60.7356 78.2634L43.1479 43.1469L78.2644 60.7346L90.9373 86.0374C89.1459 87.504 87.5048 89.145 86.0383 90.9364ZM81.9702 81.9692L73.6763 65.3227L57.0298 57.0288L65.3237 73.6754L81.9702 81.9692Z" fill="#0DB6A5"/>
<path id="Vector_2" fill-rule="evenodd" clip-rule="evenodd" d="M98.4581 91.2674C102.744 88.4031 107.783 86.875 112.938 86.875C119.848 86.8837 126.471 89.6324 131.357 94.5183C136.243 99.4041 138.991 106.027 139 112.937C139 118.092 137.472 123.131 134.608 127.417C131.744 131.703 127.673 135.044 122.912 137.016C118.149 138.989 112.909 139.505 107.853 138.5C102.798 137.494 98.1532 135.012 94.5088 131.366C90.8635 127.722 88.3815 123.078 87.3755 118.022C86.3703 112.966 86.8864 107.726 88.8593 102.963C90.8314 98.2018 94.1717 94.1308 98.4581 91.2674ZM113.211 124.428L128.76 103.697L121.81 98.4841L108.95 115.63L101.344 109.545L95.9171 116.328L107.023 125.213L113.211 124.428Z" fill="#0DB6A5"/>
</g>
<defs>
<clipPath id="clip0_447_416">
<rect width="139" height="139" fill="white"/>
</clipPath>
</defs>
</svg>
