<svg width="123" height="123" viewBox="0 0 123 123" fill="none" xmlns="http://www.w3.org/2000/svg">
<g id="date-of-birth-icon 1" clip-path="url(#clip0_447_140)">
<g id="Group">
<path id="Vector" d="M81.53 4.71C81.53 2.09 84.11 0 87.3 0C90.5 0 93.07 2.13 93.07 4.71V25.4C93.07 28.02 90.49 30.11 87.3 30.11C84.1 30.11 81.53 27.98 81.53 25.4V4.71ZM46.21 85.9H56.99V73.6C56.99 72.65 57.77 71.88 58.71 71.88H64.12C65.07 71.88 65.84 72.66 65.84 73.6V85.9H76.62C81.26 85.9 85.06 89.7 85.06 94.35V102.89H89.75C91.24 102.89 92.46 104.1 92.46 105.6C92.46 107.09 91.25 108.31 89.75 108.31H33.07C31.58 108.31 30.36 107.1 30.36 105.6C30.36 104.11 31.57 102.89 33.07 102.89H37.76V94.35C37.77 89.7 41.57 85.9 46.21 85.9ZM61.42 58.26C62.35 62.4 65.16 64.47 65.16 66.55C65.16 68.62 64.23 70.69 61.42 70.69C58.62 70.69 57.68 68.62 57.68 66.55C57.68 64.48 60.48 62.41 61.42 58.26ZM29.53 4.71C29.53 2.09 32.11 0 35.3 0C38.5 0 41.07 2.13 41.07 4.71V25.4C41.07 28.02 38.49 30.11 35.3 30.11C32.1 30.11 29.53 27.98 29.53 25.4V4.71ZM7.56 44.09H115.18V22.66C115.18 21.86 114.87 21.11 114.34 20.62C113.81 20.09 113.1 19.78 112.3 19.78H102.99C101.21 19.78 99.79 17.15 99.79 15.37C99.79 13.59 101.21 12.17 102.99 12.17H113.51C116.09 12.17 118.39 13.24 120.08 14.92C121.77 16.61 122.83 18.96 122.83 21.49V113.55C122.83 116.13 121.76 118.43 120.08 120.12C118.39 121.81 116.04 122.87 113.51 122.87H9.33C6.75 122.87 4.45 121.8 2.76 120.12C1.07 118.44 0 116.08 0 113.55V21.49C0 18.91 1.07 16.61 2.75 14.92C4.44 13.23 6.79 12.17 9.32 12.17H20.6C22.38 12.17 23.8 13.59 23.8 15.37C23.8 17.15 22.38 19.78 20.6 19.78H10.54C9.74 19.78 8.99 20.09 8.45 20.62C7.92 21.15 7.61 21.86 7.61 22.71V44.14L7.56 44.09ZM115.18 52.9H7.56V112.29C7.56 113.09 7.87 113.84 8.4 114.38C8.93 114.91 9.64 115.22 10.49 115.22H112.25C113.05 115.22 113.8 114.91 114.34 114.38C114.87 113.85 115.18 113.14 115.18 112.29V52.9ZM50.36 19.73C48.58 19.73 47.16 17.1 47.16 15.32C47.16 13.54 48.58 12.12 50.36 12.12H71.85C73.63 12.12 75.05 13.54 75.05 15.32C75.05 17.1 73.63 19.73 71.85 19.73H50.36Z" fill="url(#paint0_linear_447_140)"/>
</g>
</g>
<defs>
<linearGradient id="paint0_linear_447_140" x1="61.415" y1="0" x2="61.415" y2="122.87" gradientUnits="userSpaceOnUse">
<stop stop-color="#1EFFD7"/>
<stop offset="1" stop-color="#008080"/>
</linearGradient>
<clipPath id="clip0_447_140">
<rect width="122.83" height="122.88" fill="white"/>
</clipPath>
</defs>
</svg>
