<svg width="110" height="123" viewBox="0 0 110 123" fill="none" xmlns="http://www.w3.org/2000/svg">
<g id="female-icon 1" clip-path="url(#clip0_447_122)">
<g id="Group">
<path id="Vector" fill-rule="evenodd" clip-rule="evenodd" d="M25.02 90.59C34.75 100.04 44.53 105.32 54.39 105.62C64.27 105.92 74.36 101.2 84.7 90.65C83.2 90.3 81.6 89.96 79.91 89.62V89.63L79.67 89.58C76.71 88.99 71.3 87.9 67.89 85.83C65.95 84.65 64.85 83.5 64.88 81.92C62.32 83.45 59.63 84.43 56.87 84.82C52.66 85.42 48.34 84.63 44.1 82.32C44.31 84.09 43.33 85.33 41.45 86.47C38.53 88.24 33.84 89.01 30.41 89.57C29.61 89.7 28.88 89.82 28.18 89.96C27.08 90.15 26.03 90.36 25.02 90.59ZM38.06 25.98C44.67 37.52 57.42 45.23 81.11 46.11C81.8 48.12 81.58 50.23 81.11 52.35C71.39 85.55 46.49 94.92 29.28 61.05L26.7 54.13C21.43 43.36 31.25 47.75 34.84 40.12L36.35 33.49L38.06 25.98ZM84.7 58.7C93.76 23.52 84.78 8.64 68.27 5.83C64.76 1.99 58.22 0.25 53.6 0C13.7 2.02 11.88 44.53 21.87 72.53L31.67 70.37C34.56 74.55 37.6 77.78 40.71 80.12L40.81 80.28C41.83 81.96 41.22 83.1 39.89 83.9C37.48 85.37 33.11 86.08 29.91 86.6C29 86.75 28.17 86.88 27.59 87C17.11 89.05 10.26 91.49 5.93 96.6C1.62 101.69 0 109.22 0 121.39C0 122.22 0.67 122.88 1.49 122.88H108.19C109.02 122.88 109.68 122.21 109.68 121.39C109.68 108.89 107.97 101.37 103.38 96.32C98.81 91.29 91.58 88.93 80.48 86.7V86.69L80.24 86.64C77.45 86.08 72.35 85.06 69.41 83.28C67.91 82.37 67.06 81.23 67.86 79.83C68.74 79.13 69.6 78.36 70.44 77.52C74.79 73.2 78.61 67.06 81.56 59.4L84.7 58.7ZM88.67 91.67C77.1 104.02 65.65 109.53 54.29 109.19C42.93 108.85 31.83 102.65 20.96 91.59C15.12 93.21 10.99 95.27 8.22 98.53C4.59 102.81 3.12 109.35 3 119.89H106.69C106.56 109.08 105.03 102.56 101.18 98.32C98.41 95.26 94.34 93.29 88.67 91.67Z" fill="url(#paint0_linear_447_122)"/>
</g>
</g>
<defs>
<linearGradient id="paint0_linear_447_122" x1="54.84" y1="0" x2="54.84" y2="122.88" gradientUnits="userSpaceOnUse">
<stop stop-color="#1EFFD7"/>
<stop offset="1" stop-color="#008080"/>
</linearGradient>
<clipPath id="clip0_447_122">
<rect width="109.68" height="122.88" fill="white"/>
</clipPath>
</defs>
</svg>
