<svg width="21" height="18" viewBox="0 0 21 18" fill="none" xmlns="http://www.w3.org/2000/svg">
<g id="Frame 1">
<g id="Group 2">
<g id="Group 1">
<path id="Exclude" fill-rule="evenodd" clip-rule="evenodd" d="M0.250061 2.14286C0.250061 1.23553 0.692316 0.5 1.23787 0.5H19.5123C20.0578 0.5 20.5001 1.23553 20.5001 2.14286V16.1071C20.5001 17.0145 20.0578 17.75 19.5123 17.75H1.23787C0.692317 17.75 0.250061 17.0145 0.250061 16.1071V2.14286ZM6.50005 4.68333C6.50005 5.75108 5.60462 6.61667 4.50005 6.61667C3.39548 6.61667 2.50005 5.75108 2.50005 4.68333C2.50005 3.61558 3.39548 2.75 4.50005 2.75C5.60462 2.75 6.50005 3.61558 6.50005 4.68333ZM7.40388 5C7.18084 5 7.00003 5.16789 7.00003 5.375C7.00003 5.58211 7.18084 5.75 7.40388 5.75H17.0962C17.3192 5.75 17.5 5.58211 17.5 5.375C17.5 5.16789 17.3192 5 17.0962 5H7.40388ZM7.00003 3.875C7.00003 3.66789 7.18319 3.5 7.40912 3.5H11.0909C11.3169 3.5 11.5 3.66789 11.5 3.875C11.5 4.08211 11.3169 4.25 11.0909 4.25H7.40912C7.18319 4.25 7.00003 4.08211 7.00003 3.875ZM3.26832 8C2.84401 8 2.50003 8.3198 2.50003 8.71429V14.7857C2.50003 15.1802 2.84401 15.5 3.26832 15.5H17.4817C17.9061 15.5 18.25 15.1802 18.25 14.7857V8.71429C18.25 8.3198 17.9061 8 17.4817 8H3.26832Z" fill="#D6D1D1"/>
</g>
</g>
</g>
</svg>
