<svg width="104" height="123" viewBox="0 0 104 123" fill="none" xmlns="http://www.w3.org/2000/svg">
<g id="man-line-icon 1" clip-path="url(#clip0_447_119)">
<g id="Group">
<path id="Vector" fill-rule="evenodd" clip-rule="evenodd" d="M12.26 21.44C29.87 2.01 50.18 -8.56 65.43 8.73C69.43 8.92 73 10.25 76 13.07C82.28 18.96 83.23 29.99 80.38 38.76V46.39C82.32 47.66 83.56 50.05 84.14 52.78C84.51 54.54 84.6 56.47 84.43 58.32C84.25 60.23 83.78 62.07 83.02 63.56C81.93 65.71 80.27 67.22 78.02 67.55C75.82 69.89 73.67 72.39 71.74 74.81C69.63 77.46 67.82 79.97 66.58 82.02C65.62 83.61 65.92 84.65 66.27 85.83C66.44 86.42 66.62 87.03 66.75 87.71C70.6 88.55 74.09 89.2 77.22 89.79C97.09 93.51 103.25 94.66 103.25 120.5C103.25 121.82 102.18 122.88 100.87 122.88H51.62H2.38C1.06 122.88 0 121.81 0 120.5C0 94.66 6.16 93.5 26.03 89.78C29.18 89.19 32.69 88.53 36.57 87.69C36.7 87.18 36.87 86.7 37.04 86.22C37.44 85.08 37.84 83.94 36.67 82.02C35.43 79.97 33.62 77.46 31.51 74.81C29.59 72.39 27.43 69.89 25.23 67.55C22.98 67.22 21.32 65.7 20.23 63.56C19.47 62.06 19 60.22 18.82 58.32C18.64 56.47 18.74 54.54 19.11 52.78C19.68 50.06 20.91 47.69 22.83 46.41L20.25 44.88C19.56 37.23 21.57 23.95 12.26 21.44ZM75.62 36.7C75.19 33.55 74.37 30.91 73.2 28.7C71.7 26.83 69.52 25.24 66.72 23.19L66.4 22.96C65.81 22.52 65.21 22.11 64.61 21.73C55.19 27.84 50.63 26.41 43.03 27.66C36.14 28.79 30.55 31.35 27.62 36.03C27.62 36.15 27.62 36.28 27.62 36.4V47.9C27.62 49.03 26.83 49.98 25.77 50.22C24.81 50.51 24.12 51.95 23.75 53.75C23.48 55.06 23.41 56.5 23.54 57.88C23.67 59.2 23.97 60.44 24.47 61.41C24.91 62.28 25.48 62.87 26.14 62.88H26.28C26.97 62.87 27.6 63.15 28.04 63.62C30.56 66.27 33.05 69.13 35.23 71.87C37.42 74.62 39.34 77.3 40.72 79.58C43.05 83.42 42.28 85.61 41.52 87.8C41.3 88.43 41.08 89.07 41.08 89.67C41.08 90.87 40.19 91.86 39.04 92.03C34.45 93.06 30.45 93.81 26.91 94.47C10.64 97.5 5.18 98.53 4.79 118.12H51.62H98.45C98.06 98.53 92.6 97.5 76.34 94.45C72.76 93.78 68.7 93.02 64.03 91.97C62.93 91.72 62.17 90.74 62.18 89.65H62.17C62.17 88.72 61.93 87.91 61.71 87.15C61.06 84.92 60.48 82.94 62.52 79.57C63.9 77.29 65.82 74.61 68.01 71.86C70.19 69.12 72.68 66.26 75.2 63.61C75.71 63.08 76.4 62.83 77.08 62.88H77.09C77.75 62.87 78.32 62.28 78.76 61.41C79.25 60.44 79.56 59.2 79.69 57.88C79.82 56.5 79.75 55.06 79.48 53.75C79.1 51.92 78.39 50.46 77.41 50.21C76.33 49.94 75.61 48.97 75.61 47.9V36.7H75.62Z" fill="url(#paint0_linear_447_119)"/>
</g>
</g>
<defs>
<linearGradient id="paint0_linear_447_119" x1="51.625" y1="-0.00104523" x2="51.625" y2="122.88" gradientUnits="userSpaceOnUse">
<stop stop-color="#1EFFD7"/>
<stop offset="1" stop-color="#008080"/>
</linearGradient>
<clipPath id="clip0_447_119">
<rect width="103.24" height="122.88" fill="white"/>
</clipPath>
</defs>
</svg>
