<svg width="115" height="123" viewBox="0 0 115 123" fill="none" xmlns="http://www.w3.org/2000/svg">
<g id="measure-height-icon 1" clip-path="url(#clip0_447_219)">
<g id="Group">
<path id="Vector" fill-rule="evenodd" clip-rule="evenodd" d="M111.15 74.12C108.08 75.89 104.12 74.83 102.35 71.76L96.47 61.58C96.47 78.08 96.68 98.96 96.68 115.48C96.68 119.55 93.35 122.87 89.29 122.87C85.22 122.87 81.9 119.54 81.9 115.48V82.93H77.75V115.49C77.75 119.56 74.42 122.88 70.36 122.88C66.29 122.88 62.97 119.55 62.97 115.49C62.97 99.05 63.16 78.25 63.16 61.84L57.43 71.77C55.66 74.84 51.7 75.9 48.63 74.13C45.56 72.36 44.5 68.4 46.27 65.33L61.26 39.37C66.61 30.11 92.53 28.97 98.3 38.96L113.52 65.33C115.28 68.39 114.22 72.35 111.15 74.12ZM25.76 90.76C24.55 90.76 23.58 89.92 23.58 88.88C23.58 87.84 24.56 87 25.76 87H32.94V76.44H17.97C16.76 76.44 15.79 75.6 15.79 74.56C15.79 73.52 16.77 72.68 17.97 72.68H32.94V60.92H25.76C24.55 60.92 23.58 60.08 23.58 59.04C23.58 58 24.56 57.16 25.76 57.16H32.94V46.38H17.97C16.76 46.38 15.79 45.54 15.79 44.5C15.79 43.46 16.77 42.62 17.97 42.62H32.94V31.27H25.76C24.55 31.27 23.58 30.43 23.58 29.39C23.58 28.35 24.56 27.51 25.76 27.51H32.94V16.31H17.97C16.76 16.31 15.79 15.47 15.79 14.43C15.79 13.39 16.77 12.55 17.97 12.55H32.94V4.42H3.81V117.01H32.94V105.9H17.97C16.76 105.9 15.79 105.06 15.79 104.02C15.79 102.98 16.77 102.14 17.97 102.14H32.94V90.76H25.76ZM2.09 0.61H34.66C35.23 0.61 35.75 0.84 36.13 1.23C36.51 1.61 36.75 2.13 36.75 2.7V118.73C36.75 119.3 36.52 119.82 36.13 120.2C35.75 120.59 35.22 120.82 34.66 120.82H2.09C1.52 120.82 1 120.59 0.62 120.2C0.23 119.82 0 119.3 0 118.73V2.7C0 2.13 0.23 1.61 0.62 1.23C1 0.84 1.52 0.61 2.09 0.61ZM79.88 0C88.03 0 94.63 6.6 94.63 14.75C94.63 22.9 88.03 29.5 79.88 29.5C71.73 29.5 65.13 22.9 65.13 14.75C65.13 6.6 71.74 0 79.88 0Z" fill="url(#paint0_linear_447_219)"/>
</g>
</g>
<defs>
<linearGradient id="paint0_linear_447_219" x1="57.1851" y1="0" x2="57.1851" y2="122.88" gradientUnits="userSpaceOnUse">
<stop stop-color="#1EFFD7"/>
<stop offset="1" stop-color="#008080"/>
</linearGradient>
<clipPath id="clip0_447_219">
<rect width="114.37" height="122.88" fill="white"/>
</clipPath>
</defs>
</svg>
