<svg width="24" height="24" viewBox="0 0 24 24" fill="none" xmlns="http://www.w3.org/2000/svg">
<g id="Icon">
<g id="Iconly/Bold/Discovery">
<g id="Discovery">
<path id="Vector" d="M11.9999 2.00012C17.5199 2.00012 21.9999 6.48012 21.9999 12.0001C21.9999 17.5301 17.5199 22.0001 11.9999 22.0001C6.4699 22.0001 1.9999 17.5301 1.9999 12.0001C1.9999 6.48012 6.4699 2.00012 11.9999 2.00012ZM15.8499 8.71012C15.9599 8.36012 15.6399 8.03012 15.2899 8.14012L10.1699 9.74012C9.9599 9.81012 9.7899 9.97012 9.7299 10.1801L8.1299 15.3101C8.0199 15.6501 8.3499 15.9801 8.6899 15.8701L13.7899 14.2701C13.9999 14.2101 14.1699 14.0401 14.2299 13.8301L15.8499 8.71012Z" fill="#D6D1D1"/>
</g>
</g>
</g>
</svg>
