<svg width="173" height="173" viewBox="0 0 173 173" fill="none" xmlns="http://www.w3.org/2000/svg">
<g id="temperature-low-svgrepo-com 1">
<path id="Vector" d="M81.5 133.389C78.3934 133.389 75.875 135.95 75.875 139.111C75.875 142.271 78.3934 144.833 81.5 144.833C84.6066 144.833 87.125 142.271 87.125 139.111C87.125 135.95 84.6066 133.389 81.5 133.389ZM81.5 133.389L81.5398 110.501M81.5 139.111L81.5398 139.151M149 70.4446C149 76.7652 143.963 81.8891 137.75 81.8891C131.537 81.8891 126.5 76.7652 126.5 70.4446C126.5 64.1239 131.537 59 137.75 59C143.963 59 149 64.1239 149 70.4446ZM104 139.111C104 151.753 93.9262 162 81.5 162C69.0736 162 59 151.753 59 139.111C59 133.306 61.1242 128.006 64.625 123.971V76.1669C64.625 66.6859 72.1802 59 81.5 59C90.8198 59 98.375 66.6859 98.375 76.1669V123.971C101.876 128.006 104 133.306 104 139.111Z" stroke="#13CFB5" stroke-width="5" stroke-linecap="round" stroke-linejoin="round"/>
</g>
</svg>
