<svg width="20" height="20" viewBox="0 0 20 20" fill="none" xmlns="http://www.w3.org/2000/svg">
<g id="icon/walk">
<path id="Shape" fill-rule="evenodd" clip-rule="evenodd" d="M11.9705 1.85385C11.9705 2.8777 12.8005 3.70769 13.8244 3.70769C14.8482 3.70769 15.6782 2.8777 15.6782 1.85385C15.6782 0.829995 14.8482 0 13.8244 0C12.8005 0 11.9705 0.829995 11.9705 1.85385ZM7.3309 9.45231C6.90628 10.1773 4.38013 14.4723 2.1709 17.7696C1.26436 18.9358 3.07551 20.3292 3.9809 19.1654C4.85132 18.0463 5.72214 16.5004 6.59304 14.9544C7.20642 13.8655 7.81985 12.7765 8.43321 11.8365C8.52244 12.0573 8.68321 12.2577 8.93859 12.4031C10.0236 13.02 10.9732 13.8462 11.7786 14.7958C11.5857 15.5595 11.3928 16.323 11.1998 17.0864C11.0714 17.5943 10.9431 18.1022 10.8147 18.61C10.4536 20.0408 12.704 20.4446 13.0621 19.0231C13.3997 17.6892 13.7367 16.3562 14.074 15.0208C14.1036 14.9038 14.1101 14.7962 14.1071 14.6923C14.1894 14.4142 14.1474 14.0981 13.9028 13.7908C13.0263 12.6888 12.0259 11.7338 10.8809 10.9442C11.4017 9.93192 11.9451 8.93346 12.5017 7.94115C13.4205 9.21385 14.6324 10.1808 16.3197 10.6746C17.6617 11.0669 18.2309 8.97962 16.8947 8.58885C15.1878 8.08885 14.1705 6.89077 13.4621 5.35654C13.2397 4.28846 12.0117 3.54923 10.964 3.82962C10.9514 3.82962 10.9394 3.82892 10.9274 3.82823C10.9085 3.82713 10.8897 3.82604 10.869 3.82769C9.58363 3.92722 8.29828 4.02709 7.01262 4.12697L6.71128 4.15038C5.68258 4.23026 5.09326 5.64582 4.64239 6.72884C4.5223 7.0173 4.41203 7.28217 4.3059 7.49192C3.67705 8.73346 5.54282 9.82885 6.17321 8.58385C6.33822 8.25819 6.50304 7.9324 6.66787 7.60655C6.89415 7.15926 7.12047 6.71187 7.34744 6.26462C7.47771 6.25451 7.60808 6.24441 7.73851 6.23431C8.17916 6.20016 8.62049 6.16596 9.0609 6.13154C8.52244 7.09731 7.99475 8.06962 7.49013 9.05308C7.42013 9.18731 7.36936 9.32077 7.3309 9.45231Z" fill="url(#paint0_linear_1_104)"/>
</g>
<defs>
<linearGradient id="paint0_linear_1_104" x1="9.78985" y1="0" x2="9.78985" y2="19.9078" gradientUnits="userSpaceOnUse">
<stop stop-color="#5A4BAF"/>
<stop offset="1" stop-color="#9874C9"/>
</linearGradient>
</defs>
</svg>
