<svg width="24" height="24" viewBox="0 0 24 24" fill="none" xmlns="http://www.w3.org/2000/svg">
<g id="Water">
<g id="Vector">
<path d="M12 2C6.67 6.55 4 10.48 4 13.8C4 18.78 7.8 22 12 22C16.2 22 20 18.78 20 13.8C20 10.48 17.33 6.55 12 2ZM7.83 14C8.2 14 8.5 14.26 8.57 14.62C8.98 16.84 10.85 17.6 12.21 17.49C12.64 17.47 13 17.81 13 18.24C13 18.64 12.68 18.97 12.28 18.99C10.15 19.12 7.66 17.9 7.09 14.87C7.07262 14.7628 7.07874 14.6531 7.10792 14.5485C7.13711 14.4438 7.18867 14.3468 7.25905 14.2641C7.32942 14.1813 7.41692 14.1149 7.5155 14.0693C7.61408 14.0237 7.72139 14 7.83 14Z" fill="#5142AB"/>
<path d="M12 2C6.67 6.55 4 10.48 4 13.8C4 18.78 7.8 22 12 22C16.2 22 20 18.78 20 13.8C20 10.48 17.33 6.55 12 2ZM7.83 14C8.2 14 8.5 14.26 8.57 14.62C8.98 16.84 10.85 17.6 12.21 17.49C12.64 17.47 13 17.81 13 18.24C13 18.64 12.68 18.97 12.28 18.99C10.15 19.12 7.66 17.9 7.09 14.87C7.07262 14.7628 7.07874 14.6531 7.10792 14.5485C7.13711 14.4438 7.18867 14.3468 7.25905 14.2641C7.32942 14.1813 7.41692 14.1149 7.5155 14.0693C7.61408 14.0237 7.72139 14 7.83 14Z" fill="url(#paint0_linear_1_59)"/>
</g>
</g>
<defs>
<linearGradient id="paint0_linear_1_59" x1="6" y1="22" x2="20.9676" y2="12.4147" gradientUnits="userSpaceOnUse">
<stop stop-color="#A274CD"/>
<stop offset="1" stop-color="#CFB9E4" stop-opacity="0"/>
</linearGradient>
</defs>
</svg>
